# xmcd
#
# Track frame offsets:
#	150
#	22477
#	54564
#	82494
#	111480
#	143583
#	174767
#	222499
#	261368
#	281589
#	314042
#
# Disc length: 4603 seconds
#
# Revision: 0
# Processed by: cddbd v1.5.2PL0 Copyright (c) Steve Scherf et al.
# Submitted via: EZCDAudioConverter 2.1.7.1
#
DISCID=b411f90b
DTITLE=Azymuth - Aurora 1/2
DYEAR=1900
DGENRE=
TTITLE0=Aurora [4Hero Remix]
TTITLE1=In My Treehouse [We Are The Horsemen Remix]
TTITLE2=Tá Nessa Ainda Bicho? [Maddslinky Remix]
TTITLE3=Isso É Partido Alto [Mode Remix]
TTITLE4=Carnaval Legrand [Opolopo Remix]
TTITLE5=Diz No Pé [Kirk Degiorgio Remix]
TTITLE6=Meu Mengô [Mark E Remix]
TTITLE7=Crazy Clock [LTJ Xperience Remix]
TTITLE8=Que Bom [Paul White Remix]
TTITLE9=É Mulher [Ashley Beedle 'Afrikanz On Marz Voyage' Remix]
TTITLE10=Tá Nessa Ainda Bicho? [Zed Bias '4x4' Remix]
EXTD=
EXTT0=
EXTT1=
EXTT2=
EXTT3=
EXTT4=
EXTT5=
EXTT6=
EXTT7=
EXTT8=
EXTT9=
EXTT10=
PLAYORDER=
